<!-- instagram-glyph.svg -->
<svg xmlns="http://www.w3.org/2000/svg" viewBox="0 0 24 24" role="img" aria-labelledby="igTitle">
  <title id="igTitle">Instagram</title>
  <path fill="currentColor" d="M7 2C4.243 2 2 4.243 2 7v10c0 2.757 2.243 5 5 5h10c2.757 0 5-2.243 5-5V7c0-2.757-2.243-5-5-5H7zm0 2h10c1.654 0 3 1.346 3 3v10c0 1.654-1.346 3-3 3H7c-1.654 0-3-1.346-3-3V7c0-1.654 1.346-3 3-3zm5 3.5a4.5 4.5 0 1 0 .001 9.001A4.5 4.5 0 0 0 12 7.5zm0 2a2.5 2.5 0 1 1 0 5.001A2.5 2.5 0 0 1 12 9.5zM17.75 6a.75.75 0 1 1 0 1.5A.75.75 0 0 1 17.75 6z"/>
</svg>
